<svg width="24" height="25" viewBox="0 0 24 25" fill="none" xmlns="http://www.w3.org/2000/svg">
<g id="viewport">
<g id="Profile">
<path d="M12.0296 13.7524C13.6245 13.7524 15.1198 13.0547 16.2397 11.7861C17.3382 10.5411 17.9441 8.89143 17.9441 7.14013C17.9441 5.38884 17.3382 3.73919 16.2397 2.49413C15.1198 1.22561 13.6245 0.527832 12.0296 0.527832C10.4347 0.527832 8.93943 1.22561 7.81946 2.49413C6.72099 3.73919 6.11508 5.38884 6.11508 7.14013C6.11508 8.89143 6.72099 10.5411 7.81946 11.7861C8.93943 13.0547 10.4347 13.7524 12.0296 13.7524ZM12.0296 1.82371C14.5764 1.82371 16.6482 4.20828 16.6482 7.14013C16.6482 10.072 14.5764 12.4566 12.0296 12.4566C9.4828 12.4566 7.41095 10.072 7.41095 7.14013C7.41095 4.20828 9.4828 1.82371 12.0296 1.82371Z" fill="white" fill-opacity="0.2"/>
<path d="M22.6409 18.2654L21.4838 16.1936C20.6863 14.7648 19.1735 13.8754 17.5375 13.8735H17.2912L17.1075 14.0357C15.6416 15.3277 13.8844 16.0098 12.0295 16.0098C10.1747 16.0098 8.41946 15.3277 6.95158 14.0357L6.76785 13.8735H6.4688C4.82891 13.8735 3.31412 14.7628 2.5147 16.1936L1.3576 18.2654C0.937366 19.0179 0.759505 19.8701 0.843552 20.7282C0.927598 21.5862 1.26769 22.3876 1.8267 23.0443C2.62807 23.9864 3.7969 24.5278 5.03414 24.5278H18.9663C20.2035 24.5278 21.3724 23.9864 22.1737 23.0443C22.7327 22.3876 23.0728 21.5862 23.1569 20.7282C23.2409 19.8701 23.0631 19.0179 22.6428 18.2654H22.6409ZM21.1847 22.2039C20.6296 22.8567 19.8224 23.23 18.9663 23.23H5.03414C4.17804 23.23 3.36885 22.8567 2.81571 22.2039C2.03193 21.2813 1.90097 19.9541 2.49125 18.8967L3.64835 16.8249C4.18977 15.8554 5.19051 15.2339 6.29093 15.1733C7.06689 15.8222 7.92104 16.3323 8.83187 16.6939C9.85802 17.1005 10.935 17.3057 12.0315 17.3057C13.128 17.3057 14.205 17.1005 15.2311 16.6939C16.14 16.3343 16.9922 15.8241 17.7682 15.1772C18.8471 15.2554 19.8224 15.873 20.354 16.8249L21.5111 18.8967C22.1014 19.9522 21.9705 21.2813 21.1867 22.2039H21.1847Z" fill="white" fill-opacity="0.2"/>
</g>
</g>
</svg>
