<svg width="24" height="24" viewBox="0 0 24 24" fill="none" xmlns="http://www.w3.org/2000/svg">
<g id="Withdrawal">
<g id="Vector">
<path d="M11.9224 24H11.9019C10.3501 23.9975 8.83942 23.7019 7.41133 23.1218C5.9303 22.5202 4.60636 21.6382 3.47635 20.5008C2.34634 19.3634 1.46643 18.025 0.868778 16.5303C0.292149 15.0893 0 13.565 0 11.9998C0 10.4345 0.292149 8.91042 0.868531 7.46922C1.46619 5.97473 2.34362 4.63885 3.4761 3.49868C4.60858 2.35852 5.93575 1.47557 7.42073 0.873986C8.85229 0.294068 10.3667 0 11.9215 0C13.4762 0 14.9909 0.294068 16.4224 0.874235C17.9072 1.47582 19.2343 2.35901 20.3671 3.49893C20.6181 3.75167 20.6181 4.16177 20.3671 4.4145C20.116 4.66723 19.7086 4.66723 19.4575 4.4145C15.3021 0.232067 8.54109 0.231818 4.3857 4.4145C0.230305 8.59718 0.230305 15.4026 4.3857 19.5853C8.52724 23.754 15.2773 23.7652 19.4325 19.6104C19.6846 19.3584 20.0917 19.3597 20.3421 19.6134C20.5924 19.8671 20.5912 20.277 20.3391 20.529C19.2054 21.6626 17.8785 22.5401 16.3955 23.1367C14.9718 23.7094 13.4668 24 11.9224 24Z" fill="url(#paint0_linear_5126_5967)"/>
<path d="M22.8042 12.5652H9.44598C9.09076 12.5652 8.80281 12.2754 8.80281 11.9178C8.80281 11.5603 9.09076 11.2704 9.44598 11.2704H22.8042C23.1594 11.2704 23.4474 11.5603 23.4474 11.9178C23.4474 12.2754 23.1594 12.5652 22.8042 12.5652Z" fill="url(#paint1_linear_5126_5967)"/>
<path d="M20.7448 15.2604C20.5803 15.2604 20.4155 15.1971 20.2901 15.0707C20.039 14.8179 20.039 14.4078 20.2901 14.1551L22.5128 11.9178L20.2901 9.68058C20.039 9.42784 20.039 9.01774 20.2901 8.76501C20.5412 8.51227 20.9486 8.51227 21.1997 8.76501L23.7652 11.3474C23.9166 11.4998 24 11.7022 24 11.9178C24 12.1335 23.9166 12.3359 23.7652 12.4883L21.1997 15.0707C21.0741 15.1971 20.9096 15.2604 20.7451 15.2604H20.7448Z" fill="url(#paint2_linear_5126_5967)"/>
</g>
</g>
<defs>
<linearGradient id="paint0_linear_5126_5967" x1="-1.40006e-07" y1="11.6923" x2="23.958" y2="12.6951" gradientUnits="userSpaceOnUse">
<stop offset="0.0429917" stop-color="#ED1975"/>
<stop offset="1" stop-color="#2C8B7A"/>
</linearGradient>
<linearGradient id="paint1_linear_5126_5967" x1="-1.40006e-07" y1="11.6923" x2="23.958" y2="12.6951" gradientUnits="userSpaceOnUse">
<stop offset="0.0429917" stop-color="#ED1975"/>
<stop offset="1" stop-color="#2C8B7A"/>
</linearGradient>
<linearGradient id="paint2_linear_5126_5967" x1="-1.40006e-07" y1="11.6923" x2="23.958" y2="12.6951" gradientUnits="userSpaceOnUse">
<stop offset="0.0429917" stop-color="#ED1975"/>
<stop offset="1" stop-color="#2C8B7A"/>
</linearGradient>
</defs>
</svg>
