<svg width="87" height="12" viewBox="0 0 87 12" fill="none" xmlns="http://www.w3.org/2000/svg">
<path d="M3.00169 3.77135C3.00169 4.42799 3.33412 4.7551 4.00144 4.7551H7.00068C8.09087 4.7551 8.89018 5.00284 9.40106 5.49833C9.91193 5.99381 10.1686 6.7683 10.1686 7.8218V8.62756C10.1686 9.68107 9.91193 10.4556 9.40106 10.951C8.89018 11.4465 8.09087 11.6919 7.00068 11.6919H2.56659C1.75506 11.6919 0.950861 11.6221 0.149107 11.4778V9.378H6.33337C6.58759 9.378 6.79291 9.30825 6.94202 9.16875C7.09112 9.02924 7.1669 8.84163 7.1669 8.60351V7.21087H3.33412C2.16816 7.21087 1.31996 6.9511 0.791978 6.43156C0.263994 5.91203 0 5.07981 0 3.9301V3.43702C0 2.28971 0.263994 1.45509 0.791978 0.935553C1.31996 0.416018 2.16816 0.15625 3.33412 0.15625H9.18351V2.45327H3.99899C3.33168 2.45327 2.99925 2.78039 2.99925 3.43702V3.76414L3.00169 3.77135Z" fill="#ED1C24"/>
<path d="M11.6699 0.161133H18.6706C19.8366 0.161133 20.6848 0.420901 21.2128 0.940436C21.7407 1.45997 22.0047 2.29459 22.0047 3.4419V5.08229C22.0047 6.22959 21.7407 7.06422 21.2128 7.58375C20.6848 8.10329 19.839 8.36306 18.6706 8.36306H14.6692V11.6438H11.6699V0.163539V0.161133ZM19.003 3.4419C19.003 2.78527 18.6706 2.45815 18.0033 2.45815H14.6692V6.06604H18.0033C18.6706 6.06604 19.003 5.73892 19.003 5.08229V3.4419Z" fill="#ED1C24"/>
<path d="M29.0048 11.6438H23.0039V9.34681H24.5048V2.45815H23.0039V0.161133H29.0048V2.45815H27.504V9.34681H29.0048V11.6438Z" fill="#ED1C24"/>
<path d="M37.0055 0.161133C38.2619 0.161133 39.2152 0.481032 39.8629 1.12083C40.5131 1.76063 40.8382 2.69868 40.8382 3.93257V7.86998C40.8382 9.10628 40.5131 10.0443 39.8629 10.6817C39.2127 11.3215 38.2594 11.6414 37.0055 11.6414H30.5059V0.161133H37.0055ZM37.839 3.93498C37.839 2.95123 37.3379 2.45815 36.3381 2.45815H33.5051V9.34681H36.3381C37.3379 9.34681 37.839 8.85614 37.839 7.86998V3.93257V3.93498Z" fill="#ED1C24"/>
<path d="M51.7544 11.6439H42.5049V0.163574H51.7544V2.46059H45.5041V4.67584H50.4222V6.97285H45.5041V9.35165H51.7544V11.6487V11.6439Z" fill="#ED1C24"/>
<path d="M53.0894 0.161133H60.09C61.256 0.161133 62.1042 0.420901 62.6322 0.940436C63.1602 1.45997 63.4242 2.29459 63.4242 3.4419V4.91873C63.4242 5.82551 63.2726 6.53266 62.9646 7.03536C62.6591 7.53805 62.1726 7.87238 61.5053 8.03594L63.5879 11.6438H60.3369L58.4205 8.1995H56.0862V11.6438H53.0869V0.163539L53.0894 0.161133ZM60.4225 3.4419C60.4225 2.78527 60.09 2.45815 59.4227 2.45815H56.0886V5.90248H59.4227C60.09 5.90248 60.4225 5.57536 60.4225 4.91873V3.4419Z" fill="#ED1C24"/>
<path d="M3.00169 3.77135C3.00169 4.42799 3.33412 4.7551 4.00144 4.7551H7.00068C8.09087 4.7551 8.89018 5.00284 9.40106 5.49833C9.91193 5.99381 10.1686 6.7683 10.1686 7.8218V8.62756C10.1686 9.68107 9.91193 10.4556 9.40106 10.951C8.89018 11.4465 8.09087 11.6919 7.00068 11.6919H2.56659C1.75506 11.6919 0.950861 11.6221 0.149107 11.4778V9.378H6.33337C6.58759 9.378 6.79291 9.30825 6.94202 9.16875C7.09112 9.02924 7.1669 8.84163 7.1669 8.60351V7.21087H3.33412C2.16816 7.21087 1.31996 6.9511 0.791978 6.43156C0.263994 5.91203 0 5.07981 0 3.9301V3.43702C0 2.28971 0.263994 1.45509 0.791978 0.935553C1.31996 0.416018 2.16816 0.15625 3.33412 0.15625H9.18351V2.45327H3.99899C3.33168 2.45327 2.99925 2.78039 2.99925 3.43702V3.76414L3.00169 3.77135Z" fill="#ED1975"/>
<path d="M11.6699 0.161133H18.6706C19.8366 0.161133 20.6848 0.420901 21.2128 0.940436C21.7407 1.45997 22.0047 2.29459 22.0047 3.4419V5.08229C22.0047 6.22959 21.7407 7.06422 21.2128 7.58375C20.6848 8.10329 19.839 8.36306 18.6706 8.36306H14.6692V11.6438H11.6699V0.163539V0.161133ZM19.003 3.4419C19.003 2.78527 18.6706 2.45815 18.0033 2.45815H14.6692V6.06604H18.0033C18.6706 6.06604 19.003 5.73892 19.003 5.08229V3.4419Z" fill="#ED1975"/>
<path d="M29.0048 11.6438H23.0039V9.34681H24.5048V2.45815H23.0039V0.161133H29.0048V2.45815H27.504V9.34681H29.0048V11.6438Z" fill="#ED1975"/>
<path d="M37.0055 0.161133C38.2619 0.161133 39.2152 0.481032 39.8629 1.12083C40.5131 1.76063 40.8382 2.69868 40.8382 3.93257V7.86998C40.8382 9.10628 40.5131 10.0443 39.8629 10.6817C39.2127 11.3215 38.2594 11.6414 37.0055 11.6414H30.5059V0.161133H37.0055ZM37.839 3.93498C37.839 2.95123 37.3379 2.45815 36.3381 2.45815H33.5051V9.34681H36.3381C37.3379 9.34681 37.839 8.85614 37.839 7.86998V3.93257V3.93498Z" fill="#ED1975"/>
<path d="M51.7544 11.6439H42.5049V0.163574H51.7544V2.46059H45.5041V4.67584H50.4222V6.97285H45.5041V9.35165H51.7544V11.6487V11.6439Z" fill="#ED1975"/>
<path d="M53.0894 0.161133H60.09C61.256 0.161133 62.1042 0.420901 62.6322 0.940436C63.1602 1.45997 63.4242 2.29459 63.4242 3.4419V4.91873C63.4242 5.82551 63.2726 6.53266 62.9646 7.03536C62.6591 7.53805 62.1726 7.87238 61.5053 8.03594L63.5879 11.6438H60.3369L58.4205 8.1995H56.0862V11.6438H53.0869V0.163539L53.0894 0.161133ZM60.4225 3.4419C60.4225 2.78527 60.09 2.45815 59.4227 2.45815H56.0886V5.90248H59.4227C60.09 5.90248 60.4225 5.57536 60.4225 4.91873V3.4419Z" fill="#ED1975"/>
<path d="M75.7614 8.69019C75.7614 9.76294 75.5071 10.5495 74.9938 11.0522C74.483 11.5549 73.6837 11.8074 72.5935 11.8074H68.7607C67.6705 11.8074 66.8712 11.5573 66.3603 11.0522C65.8494 10.5495 65.5928 9.76294 65.5928 8.69019V8.52663C65.5928 8.07926 65.6514 7.68239 65.7663 7.33844C65.8837 6.99449 66.0328 6.70105 66.2161 6.46052C66.3994 6.21999 66.6096 6.02998 66.8492 5.88566C67.0887 5.74375 67.3356 5.64033 67.5898 5.57538C67.0912 5.41183 66.6879 5.1232 66.3823 4.7143C66.0768 4.303 65.9228 3.77144 65.9228 3.11481V2.95125C65.9228 1.95547 66.177 1.21465 66.6903 0.728792C67.2012 0.242931 68.0005 0 69.0907 0H72.2586C73.3463 0 74.1481 0.242931 74.659 0.728792C75.1698 1.21465 75.4265 1.95547 75.4265 2.95125V3.11481C75.4265 3.77144 75.2749 4.303 74.9669 4.7143C74.6614 5.1232 74.2581 5.41183 73.7594 5.57538C74.0039 5.64033 74.2483 5.74616 74.4927 5.88566C74.7372 6.02757 74.9523 6.21999 75.1332 6.46052C75.3165 6.70105 75.4656 6.99449 75.5829 7.33844C75.7003 7.68239 75.7565 8.07926 75.7565 8.52663V8.69019H75.7614ZM69.5942 7.04981C68.9269 7.04981 68.5945 7.37692 68.5945 8.03356V8.69019C68.5945 8.94274 68.6702 9.14238 68.8193 9.2891C68.9685 9.43582 69.1713 9.51038 69.428 9.51038H71.9286C72.1828 9.51038 72.3881 9.43582 72.5372 9.2891C72.6863 9.14238 72.7621 8.94274 72.7621 8.69019V8.03356C72.7621 7.37692 72.4297 7.04981 71.7624 7.04981H69.5967H69.5942ZM69.9266 2.29462C69.2593 2.29462 68.9269 2.62173 68.9269 3.27836V3.77144C68.9269 4.42808 69.2593 4.75519 69.9266 4.75519H71.4275C72.0948 4.75519 72.4272 4.42808 72.4272 3.77144V3.27836C72.4272 2.62173 72.0948 2.29462 71.4275 2.29462H69.9266Z" fill="#2E3192"/>
<path d="M86.9293 8.69019C86.9293 9.76294 86.6727 10.5495 86.1618 11.0522C85.6509 11.5549 84.8492 11.8074 83.7614 11.8074H79.9286C78.8384 11.8074 78.0391 11.5573 77.5283 11.0522C77.0174 10.5495 76.7607 9.76294 76.7607 8.69019V8.52663C76.7607 8.07926 76.8194 7.68239 76.9367 7.33844C77.0541 6.99449 77.2032 6.70105 77.3865 6.46052C77.5698 6.21999 77.78 6.02998 78.0196 5.88566C78.2591 5.74375 78.506 5.64033 78.7627 5.57538C78.2616 5.41183 77.8583 5.1232 77.5552 4.7143C77.2496 4.303 77.0956 3.77144 77.0956 3.11481V2.95125C77.0956 1.95547 77.3498 1.21465 77.8631 0.728792C78.374 0.242931 79.1733 0 80.2635 0H83.4314C84.5216 0 85.3209 0.242931 85.8318 0.728792C86.3427 1.21465 86.5993 1.95547 86.5993 2.95125V3.11481C86.5993 3.77144 86.4478 4.303 86.1398 4.7143C85.8343 5.1232 85.4309 5.41183 84.9323 5.57538C85.1767 5.64033 85.4212 5.74616 85.6656 5.88566C85.91 6.02757 86.1251 6.21999 86.3085 6.46052C86.4918 6.70105 86.6409 6.99449 86.7582 7.33844C86.8755 7.68239 86.9342 8.07926 86.9342 8.52663V8.69019H86.9293ZM80.7622 7.04981C80.0949 7.04981 79.7624 7.37692 79.7624 8.03356V8.69019C79.7624 8.94274 79.8382 9.14238 79.9873 9.2891C80.1364 9.43582 80.3393 9.51038 80.5959 9.51038H83.0966C83.3508 9.51038 83.5561 9.43582 83.7052 9.2891C83.8543 9.14238 83.9301 8.94274 83.9301 8.69019V8.03356C83.9301 7.37692 83.5976 7.04981 82.9303 7.04981H80.7622ZM81.0946 2.29462C80.4273 2.29462 80.0949 2.62173 80.0949 3.27836V3.77144C80.0949 4.42808 80.4273 4.75519 81.0946 4.75519H82.5955C83.2628 4.75519 83.5952 4.42808 83.5952 3.77144V3.27836C83.5952 2.62173 83.2628 2.29462 82.5955 2.29462H81.0946Z" fill="#2E3192"/>
<path d="M75.7614 8.69019C75.7614 9.76294 75.5071 10.5495 74.9938 11.0522C74.483 11.5549 73.6837 11.8074 72.5935 11.8074H68.7607C67.6705 11.8074 66.8712 11.5573 66.3603 11.0522C65.8494 10.5495 65.5928 9.76294 65.5928 8.69019V8.52663C65.5928 8.07926 65.6514 7.68239 65.7663 7.33844C65.8837 6.99449 66.0328 6.70105 66.2161 6.46052C66.3994 6.21999 66.6096 6.02998 66.8492 5.88566C67.0887 5.74375 67.3356 5.64033 67.5898 5.57538C67.0912 5.41183 66.6879 5.1232 66.3823 4.7143C66.0768 4.303 65.9228 3.77144 65.9228 3.11481V2.95125C65.9228 1.95547 66.177 1.21465 66.6903 0.728792C67.2012 0.242931 68.0005 0 69.0907 0H72.2586C73.3463 0 74.1481 0.242931 74.659 0.728792C75.1698 1.21465 75.4265 1.95547 75.4265 2.95125V3.11481C75.4265 3.77144 75.2749 4.303 74.9669 4.7143C74.6614 5.1232 74.2581 5.41183 73.7594 5.57538C74.0039 5.64033 74.2483 5.74616 74.4927 5.88566C74.7372 6.02757 74.9523 6.21999 75.1332 6.46052C75.3165 6.70105 75.4656 6.99449 75.5829 7.33844C75.7003 7.68239 75.7565 8.07926 75.7565 8.52663V8.69019H75.7614ZM69.5942 7.04981C68.9269 7.04981 68.5945 7.37692 68.5945 8.03356V8.69019C68.5945 8.94274 68.6702 9.14238 68.8193 9.2891C68.9685 9.43582 69.1713 9.51038 69.428 9.51038H71.9286C72.1828 9.51038 72.3881 9.43582 72.5372 9.2891C72.6863 9.14238 72.7621 8.94274 72.7621 8.69019V8.03356C72.7621 7.37692 72.4297 7.04981 71.7624 7.04981H69.5967H69.5942ZM69.9266 2.29462C69.2593 2.29462 68.9269 2.62173 68.9269 3.27836V3.77144C68.9269 4.42808 69.2593 4.75519 69.9266 4.75519H71.4275C72.0948 4.75519 72.4272 4.42808 72.4272 3.77144V3.27836C72.4272 2.62173 72.0948 2.29462 71.4275 2.29462H69.9266Z" fill="#3F74BA"/>
<path d="M86.9293 8.69019C86.9293 9.76294 86.6727 10.5495 86.1618 11.0522C85.6509 11.5549 84.8492 11.8074 83.7614 11.8074H79.9286C78.8384 11.8074 78.0391 11.5573 77.5283 11.0522C77.0174 10.5495 76.7607 9.76294 76.7607 8.69019V8.52663C76.7607 8.07926 76.8194 7.68239 76.9367 7.33844C77.0541 6.99449 77.2032 6.70105 77.3865 6.46052C77.5698 6.21999 77.78 6.02998 78.0196 5.88566C78.2591 5.74375 78.506 5.64033 78.7627 5.57538C78.2616 5.41183 77.8583 5.1232 77.5552 4.7143C77.2496 4.303 77.0956 3.77144 77.0956 3.11481V2.95125C77.0956 1.95547 77.3498 1.21465 77.8631 0.728792C78.374 0.242931 79.1733 0 80.2635 0H83.4314C84.5216 0 85.3209 0.242931 85.8318 0.728792C86.3427 1.21465 86.5993 1.95547 86.5993 2.95125V3.11481C86.5993 3.77144 86.4478 4.303 86.1398 4.7143C85.8343 5.1232 85.4309 5.41183 84.9323 5.57538C85.1767 5.64033 85.4212 5.74616 85.6656 5.88566C85.91 6.02757 86.1251 6.21999 86.3085 6.46052C86.4918 6.70105 86.6409 6.99449 86.7582 7.33844C86.8755 7.68239 86.9342 8.07926 86.9342 8.52663V8.69019H86.9293ZM80.7622 7.04981C80.0949 7.04981 79.7624 7.37692 79.7624 8.03356V8.69019C79.7624 8.94274 79.8382 9.14238 79.9873 9.2891C80.1364 9.43582 80.3393 9.51038 80.5959 9.51038H83.0966C83.3508 9.51038 83.5561 9.43582 83.7052 9.2891C83.8543 9.14238 83.9301 8.94274 83.9301 8.69019V8.03356C83.9301 7.37692 83.5976 7.04981 82.9303 7.04981H80.7622ZM81.0946 2.29462C80.4273 2.29462 80.0949 2.62173 80.0949 3.27836V3.77144C80.0949 4.42808 80.4273 4.75519 81.0946 4.75519H82.5955C83.2628 4.75519 83.5952 4.42808 83.5952 3.77144V3.27836C83.5952 2.62173 83.2628 2.29462 82.5955 2.29462H81.0946Z" fill="#3F74BA"/>
</svg>
