<svg width="82" height="23" viewBox="0 0 82 23" fill="none" xmlns="http://www.w3.org/2000/svg">
<path d="M5.6568 9.51292C5.6568 10.1246 5.95125 10.4294 6.54233 10.4294H9.19891C10.1646 10.4294 10.8725 10.6602 11.325 11.1218C11.7776 11.5834 12.0049 12.3049 12.0049 13.2864V14.0371C12.0049 15.0185 11.7776 15.74 11.325 16.2016C10.8725 16.6633 10.1646 16.8918 9.19891 16.8918H5.27141C4.55259 16.8918 3.84027 16.8268 3.13012 16.6924V14.7362H8.60784C8.83301 14.7362 9.01488 14.6712 9.14695 14.5412C9.27902 14.4113 9.34614 14.2365 9.34614 14.0146V12.7172H5.95125C4.9185 12.7172 4.16721 12.4752 3.69954 11.9912C3.23188 11.5072 2.99805 10.7319 2.99805 9.66081V9.20145C2.99805 8.13259 3.23188 7.35504 3.69954 6.87103C4.16721 6.38702 4.9185 6.14502 5.95125 6.14502H11.1324V8.28497H6.54016C5.94909 8.28497 5.65463 8.58971 5.65463 9.20145V9.50619L5.6568 9.51292Z" fill="#ED1C24"/>
<path d="M13.335 6.14941H19.5358C20.5686 6.14941 21.3199 6.39142 21.7875 6.87543C22.2552 7.35944 22.489 8.13699 22.489 9.20584V10.7341C22.489 11.8029 22.2552 12.5805 21.7875 13.0645C21.3199 13.5485 20.5707 13.7905 19.5358 13.7905H15.9915V16.8469H13.335V6.15166V6.14941ZM19.8303 9.20584C19.8303 8.59411 19.5358 8.28936 18.9447 8.28936H15.9915V11.6505H18.9447C19.5358 11.6505 19.8303 11.3458 19.8303 10.7341V9.20584Z" fill="#ED1C24"/>
<path d="M28.6894 16.8469H23.374V14.707H24.7034V8.28936H23.374V6.14941H28.6894V8.28936H27.36V14.707H28.6894V16.8469Z" fill="#ED1C24"/>
<path d="M35.7766 6.14941C36.8894 6.14941 37.7338 6.44744 38.3076 7.04349C38.8835 7.63953 39.1714 8.51344 39.1714 9.66296V13.3311C39.1714 14.4829 38.8835 15.3568 38.3076 15.9506C37.7316 16.5466 36.8873 16.8447 35.7766 16.8447H30.0195V6.14941H35.7766ZM36.5149 9.6652C36.5149 8.74872 36.071 8.28936 35.1855 8.28936H32.6761V14.707H35.1855C36.071 14.707 36.5149 14.2498 36.5149 13.3311V9.66296V9.6652Z" fill="#ED1C24"/>
<path d="M48.8402 16.8471H40.6475V6.15186H48.8402V8.2918H43.304V10.3556H47.6602V12.4955H43.304V14.7116H48.8402V16.8516V16.8471Z" fill="#ED1C24"/>
<path d="M50.0217 6.14941H56.2226C57.2553 6.14941 58.0066 6.39142 58.4743 6.87543C58.9419 7.35944 59.1758 8.13699 59.1758 9.20584V10.5817C59.1758 11.4265 59.0415 12.0852 58.7687 12.5536C58.4981 13.0219 58.0672 13.3334 57.4762 13.4857L59.3208 16.8469H56.4412L54.7438 13.6381H52.6761V16.8469H50.0195V6.15166L50.0217 6.14941ZM56.517 9.20584C56.517 8.59411 56.2226 8.28936 55.6315 8.28936H52.6783V11.4982H55.6315C56.2226 11.4982 56.517 11.1934 56.517 10.5817V9.20584Z" fill="#ED1C24"/>
<path d="M5.6568 9.51292C5.6568 10.1246 5.95125 10.4294 6.54233 10.4294H9.19891C10.1646 10.4294 10.8725 10.6602 11.325 11.1218C11.7776 11.5834 12.0049 12.3049 12.0049 13.2864V14.0371C12.0049 15.0185 11.7776 15.74 11.325 16.2016C10.8725 16.6633 10.1646 16.8918 9.19891 16.8918H5.27141C4.55259 16.8918 3.84027 16.8268 3.13012 16.6924V14.7362H8.60784C8.83301 14.7362 9.01488 14.6712 9.14695 14.5412C9.27902 14.4113 9.34614 14.2365 9.34614 14.0146V12.7172H5.95125C4.9185 12.7172 4.16721 12.4752 3.69954 11.9912C3.23188 11.5072 2.99805 10.7319 2.99805 9.66081V9.20145C2.99805 8.13259 3.23188 7.35504 3.69954 6.87103C4.16721 6.38702 4.9185 6.14502 5.95125 6.14502H11.1324V8.28497H6.54016C5.94909 8.28497 5.65463 8.58971 5.65463 9.20145V9.50619L5.6568 9.51292Z" fill="#ED1975"/>
<path d="M13.335 6.14941H19.5358C20.5686 6.14941 21.3199 6.39142 21.7875 6.87543C22.2552 7.35944 22.489 8.13699 22.489 9.20584V10.7341C22.489 11.8029 22.2552 12.5805 21.7875 13.0645C21.3199 13.5485 20.5707 13.7905 19.5358 13.7905H15.9915V16.8469H13.335V6.15166V6.14941ZM19.8303 9.20584C19.8303 8.59411 19.5358 8.28936 18.9447 8.28936H15.9915V11.6505H18.9447C19.5358 11.6505 19.8303 11.3458 19.8303 10.7341V9.20584Z" fill="#ED1975"/>
<path d="M28.6894 16.8469H23.374V14.707H24.7034V8.28936H23.374V6.14941H28.6894V8.28936H27.36V14.707H28.6894V16.8469Z" fill="#ED1975"/>
<path d="M35.7766 6.14941C36.8894 6.14941 37.7338 6.44744 38.3076 7.04349C38.8835 7.63953 39.1714 8.51344 39.1714 9.66296V13.3311C39.1714 14.4829 38.8835 15.3568 38.3076 15.9506C37.7316 16.5466 36.8873 16.8447 35.7766 16.8447H30.0195V6.14941H35.7766ZM36.5149 9.6652C36.5149 8.74872 36.071 8.28936 35.1855 8.28936H32.6761V14.707H35.1855C36.071 14.707 36.5149 14.2498 36.5149 13.3311V9.66296V9.6652Z" fill="#ED1975"/>
<path d="M48.8402 16.8471H40.6475V6.15186H48.8402V8.2918H43.304V10.3556H47.6602V12.4955H43.304V14.7116H48.8402V16.8516V16.8471Z" fill="#ED1975"/>
<path d="M50.0217 6.14941H56.2226C57.2553 6.14941 58.0066 6.39142 58.4743 6.87543C58.9419 7.35944 59.1758 8.13699 59.1758 9.20584V10.5817C59.1758 11.4265 59.0415 12.0852 58.7687 12.5536C58.4981 13.0219 58.0672 13.3334 57.4762 13.4857L59.3208 16.8469H56.4412L54.7438 13.6381H52.6761V16.8469H50.0195V6.15166L50.0217 6.14941ZM56.517 9.20584C56.517 8.59411 56.2226 8.28936 55.6315 8.28936H52.6783V11.4982H55.6315C56.2226 11.4982 56.517 11.1934 56.517 10.5817V9.20584Z" fill="#ED1975"/>
<path d="M70.1045 14.0959C70.1045 15.0953 69.8793 15.8281 69.4247 16.2964C68.9721 16.7647 68.2642 17 67.2985 17H63.9036C62.938 17 62.23 16.767 61.7775 16.2964C61.325 15.8281 61.0977 15.0953 61.0977 14.0959V13.9436C61.0977 13.5268 61.1496 13.1571 61.2514 12.8366C61.3553 12.5162 61.4874 12.2428 61.6498 12.0187C61.8121 11.7947 61.9983 11.6176 62.2105 11.4832C62.4227 11.351 62.6414 11.2546 62.8666 11.1941C62.4249 11.0418 62.0676 10.7729 61.797 10.3919C61.5263 10.0088 61.3899 9.51355 61.3899 8.90181V8.74944C61.3899 7.82176 61.6151 7.13159 62.0698 6.67896C62.5223 6.22632 63.2303 6 64.1959 6H67.0019C67.9654 6 68.6755 6.22632 69.128 6.67896C69.5805 7.13159 69.8079 7.82176 69.8079 8.74944V8.90181C69.8079 9.51355 69.6736 10.0088 69.4008 10.3919C69.1302 10.7729 68.773 11.0418 68.3313 11.1941C68.5478 11.2546 68.7643 11.3532 68.9808 11.4832C69.1973 11.6154 69.3879 11.7947 69.5481 12.0187C69.7105 12.2428 69.8425 12.5162 69.9464 12.8366C70.0504 13.1571 70.1002 13.5268 70.1002 13.9436V14.0959H70.1045ZM64.6419 12.5677C64.0509 12.5677 63.7564 12.8725 63.7564 13.4842V14.0959C63.7564 14.3312 63.8235 14.5172 63.9556 14.6539C64.0877 14.7906 64.2674 14.8601 64.4947 14.8601H66.7096C66.9348 14.8601 67.1167 14.7906 67.2487 14.6539C67.3808 14.5172 67.4479 14.3312 67.4479 14.0959V13.4842C67.4479 12.8725 67.1535 12.5677 66.5624 12.5677H64.6441H64.6419ZM64.9364 8.13771C64.3453 8.13771 64.0509 8.44245 64.0509 9.05419V9.51355C64.0509 10.1253 64.3453 10.43 64.9364 10.43H66.2658C66.8568 10.43 67.1513 10.1253 67.1513 9.51355V9.05419C67.1513 8.44245 66.8568 8.13771 66.2658 8.13771H64.9364Z" fill="#2E3192"/>
<path d="M79.9971 14.0959C79.9971 15.0953 79.7697 15.8281 79.3172 16.2964C78.8647 16.7647 78.1546 17 77.1911 17H73.7962C72.8306 17 72.1226 16.767 71.6701 16.2964C71.2176 15.8281 70.9902 15.0953 70.9902 14.0959V13.9436C70.9902 13.5268 71.0422 13.1571 71.1461 12.8366C71.25 12.5162 71.3821 12.2428 71.5445 12.0187C71.7069 11.7947 71.8931 11.6176 72.1053 11.4832C72.3174 11.351 72.5361 11.2546 72.7634 11.1941C72.3196 11.0418 71.9624 10.7729 71.6939 10.3919C71.4233 10.0088 71.2869 9.51355 71.2869 8.90181V8.74944C71.2869 7.82176 71.512 7.13159 71.9667 6.67896C72.4192 6.22632 73.1272 6 74.0928 6H76.8988C77.8644 6 78.5724 6.22632 79.0249 6.67896C79.4774 7.13159 79.7048 7.82176 79.7048 8.74944V8.90181C79.7048 9.51355 79.5706 10.0088 79.2977 10.3919C79.0271 10.7729 78.6699 11.0418 78.2282 11.1941C78.4447 11.2546 78.6612 11.3532 78.8777 11.4832C79.0942 11.6154 79.2848 11.7947 79.4471 12.0187C79.6095 12.2428 79.7416 12.5162 79.8455 12.8366C79.9494 13.1571 80.0014 13.5268 80.0014 13.9436V14.0959H79.9971ZM74.5345 12.5677C73.9434 12.5677 73.649 12.8725 73.649 13.4842V14.0959C73.649 14.3312 73.7161 14.5172 73.8482 14.6539C73.9802 14.7906 74.1599 14.8601 74.3873 14.8601H76.6022C76.8274 14.8601 77.0092 14.7906 77.1413 14.6539C77.2734 14.5172 77.3405 14.3312 77.3405 14.0959V13.4842C77.3405 12.8725 77.046 12.5677 76.455 12.5677H74.5345ZM74.829 8.13771C74.2379 8.13771 73.9434 8.44245 73.9434 9.05419V9.51355C73.9434 10.1253 74.2379 10.43 74.829 10.43H76.1583C76.7494 10.43 77.0439 10.1253 77.0439 9.51355V9.05419C77.0439 8.44245 76.7494 8.13771 76.1583 8.13771H74.829Z" fill="#2E3192"/>
<path d="M70.1045 14.0959C70.1045 15.0953 69.8793 15.8281 69.4247 16.2964C68.9721 16.7647 68.2642 17 67.2985 17H63.9036C62.938 17 62.23 16.767 61.7775 16.2964C61.325 15.8281 61.0977 15.0953 61.0977 14.0959V13.9436C61.0977 13.5268 61.1496 13.1571 61.2514 12.8366C61.3553 12.5162 61.4874 12.2428 61.6498 12.0187C61.8121 11.7947 61.9983 11.6176 62.2105 11.4832C62.4227 11.351 62.6414 11.2546 62.8666 11.1941C62.4249 11.0418 62.0676 10.7729 61.797 10.3919C61.5263 10.0088 61.3899 9.51355 61.3899 8.90181V8.74944C61.3899 7.82176 61.6151 7.13159 62.0698 6.67896C62.5223 6.22632 63.2303 6 64.1959 6H67.0019C67.9654 6 68.6755 6.22632 69.128 6.67896C69.5805 7.13159 69.8079 7.82176 69.8079 8.74944V8.90181C69.8079 9.51355 69.6736 10.0088 69.4008 10.3919C69.1302 10.7729 68.773 11.0418 68.3313 11.1941C68.5478 11.2546 68.7643 11.3532 68.9808 11.4832C69.1973 11.6154 69.3879 11.7947 69.5481 12.0187C69.7105 12.2428 69.8425 12.5162 69.9464 12.8366C70.0504 13.1571 70.1002 13.5268 70.1002 13.9436V14.0959H70.1045ZM64.6419 12.5677C64.0509 12.5677 63.7564 12.8725 63.7564 13.4842V14.0959C63.7564 14.3312 63.8235 14.5172 63.9556 14.6539C64.0877 14.7906 64.2674 14.8601 64.4947 14.8601H66.7096C66.9348 14.8601 67.1167 14.7906 67.2487 14.6539C67.3808 14.5172 67.4479 14.3312 67.4479 14.0959V13.4842C67.4479 12.8725 67.1535 12.5677 66.5624 12.5677H64.6441H64.6419ZM64.9364 8.13771C64.3453 8.13771 64.0509 8.44245 64.0509 9.05419V9.51355C64.0509 10.1253 64.3453 10.43 64.9364 10.43H66.2658C66.8568 10.43 67.1513 10.1253 67.1513 9.51355V9.05419C67.1513 8.44245 66.8568 8.13771 66.2658 8.13771H64.9364Z" fill="#3F74BA"/>
<path d="M79.9971 14.0959C79.9971 15.0953 79.7697 15.8281 79.3172 16.2964C78.8647 16.7647 78.1546 17 77.1911 17H73.7962C72.8306 17 72.1226 16.767 71.6701 16.2964C71.2176 15.8281 70.9902 15.0953 70.9902 14.0959V13.9436C70.9902 13.5268 71.0422 13.1571 71.1461 12.8366C71.25 12.5162 71.3821 12.2428 71.5445 12.0187C71.7069 11.7947 71.8931 11.6176 72.1053 11.4832C72.3174 11.351 72.5361 11.2546 72.7634 11.1941C72.3196 11.0418 71.9624 10.7729 71.6939 10.3919C71.4233 10.0088 71.2869 9.51355 71.2869 8.90181V8.74944C71.2869 7.82176 71.512 7.13159 71.9667 6.67896C72.4192 6.22632 73.1272 6 74.0928 6H76.8988C77.8644 6 78.5724 6.22632 79.0249 6.67896C79.4774 7.13159 79.7048 7.82176 79.7048 8.74944V8.90181C79.7048 9.51355 79.5706 10.0088 79.2977 10.3919C79.0271 10.7729 78.6699 11.0418 78.2282 11.1941C78.4447 11.2546 78.6612 11.3532 78.8777 11.4832C79.0942 11.6154 79.2848 11.7947 79.4471 12.0187C79.6095 12.2428 79.7416 12.5162 79.8455 12.8366C79.9494 13.1571 80.0014 13.5268 80.0014 13.9436V14.0959H79.9971ZM74.5345 12.5677C73.9434 12.5677 73.649 12.8725 73.649 13.4842V14.0959C73.649 14.3312 73.7161 14.5172 73.8482 14.6539C73.9802 14.7906 74.1599 14.8601 74.3873 14.8601H76.6022C76.8274 14.8601 77.0092 14.7906 77.1413 14.6539C77.2734 14.5172 77.3405 14.3312 77.3405 14.0959V13.4842C77.3405 12.8725 77.046 12.5677 76.455 12.5677H74.5345ZM74.829 8.13771C74.2379 8.13771 73.9434 8.44245 73.9434 9.05419V9.51355C73.9434 10.1253 74.2379 10.43 74.829 10.43H76.1583C76.7494 10.43 77.0439 10.1253 77.0439 9.51355V9.05419C77.0439 8.44245 76.7494 8.13771 76.1583 8.13771H74.829Z" fill="#3F74BA"/>
</svg>
