<svg width="216" height="65" viewBox="0 0 216 65" fill="none" xmlns="http://www.w3.org/2000/svg">
<g clip-path="url(#clip0_3050_36155)">
<path d="M7.12779 16.7208C7.98965 14.063 9.00679 11.4319 10.1598 8.858C3.89 14.8829 0 23.2796 0 32.5724C0 32.8164 0.00388224 33.0604 0.00776448 33.3007C2.06923 33.5257 7.12779 34.0938 11.0333 34.5285L2.2517 37.3579L1.93724 38.9595C1.93724 38.9595 1.93335 38.9824 1.92947 38.9938C1.50631 41.1711 1.7703 43.4286 2.64769 45.4686C4.44516 49.6517 7.09285 53.3963 10.3772 56.4964C8.34293 52.4277 6.60369 47.135 7.23649 41.5868L14.9505 39.1006V39.9891C12.0505 43.4476 9.32902 48.6145 9.55031 52.7671L9.58137 53.3162L9.82206 53.8119C9.83371 53.8348 9.85312 53.8768 9.8803 53.934C11.3788 56.9464 13.7276 59.486 16.6703 61.1867C19.7101 62.9446 23.0527 64.2449 26.6011 64.9999C20.4361 61.1829 16.2782 53.9912 15.199 51.974C15.2921 50.7881 15.8628 48.9234 16.9926 46.8795L33.7794 54.3344L50.5662 46.8795C51.6959 48.9234 52.2627 50.7881 52.3598 51.974C51.2766 53.995 47.1226 61.1829 40.9576 64.9999C44.5099 64.2449 47.8525 62.9408 50.8884 61.1867C53.8311 59.486 56.1799 56.9464 57.6784 53.934C57.7056 53.8768 57.7289 53.8348 57.7367 53.8119L57.9773 53.3162L58.0084 52.7671C58.2297 48.6145 55.5082 43.4476 52.6082 39.9891V39.1006L60.3222 41.5868C60.955 47.1312 59.2158 52.4277 57.1815 56.4964C60.4659 53.3963 63.1136 49.6517 64.911 45.4686C65.7884 43.4248 66.0524 41.1711 65.6292 38.9938C65.6292 38.9824 65.6254 38.9709 65.6215 38.9595L65.307 37.3579L56.5176 34.5247C60.4232 34.09 65.4972 33.518 67.551 33.2969C67.5548 33.0566 67.5587 32.8126 67.5587 32.5685C67.5587 23.2757 63.6648 14.8752 57.3989 8.85037C57.5542 9.19737 57.7095 9.54056 57.857 9.88756C60.2213 15.4129 62.1081 21.1975 62.6399 27.1767C62.6671 27.516 62.6826 27.8592 62.6982 28.1986C59.7632 28.4579 55.0385 28.8774 52.6043 29.0947V28.824C54.7046 27.9088 59.5186 25.7963 60.5125 25.3654L60.3378 23.3711C60.2213 22.0174 60.0311 20.6675 59.7709 19.3253C57.8881 9.63208 50.2517 1.95227 40.3947 0.0304126C40.3403 0.018973 40.286 0.00753338 40.2316 -9.30392e-05C43.7839 2.05523 46.8586 4.92658 49.1996 8.24407C52.0841 12.328 53.769 17.106 54.4911 22.0326C53.373 22.5817 52.8761 22.8258 51.6726 23.4168C51.1252 22.6313 50.3682 21.9869 49.4481 21.5789L37.2734 16.1717C35.0566 15.1879 32.5137 15.1879 30.2931 16.1717L18.1184 21.5789C17.1983 21.9869 16.4374 22.6313 15.8939 23.4168C14.6865 22.822 14.1818 22.5741 13.0637 22.025C14.1663 14.3605 17.835 7.03147 24.0854 2.20776C25.1181 1.40698 26.2051 0.659592 27.3387 -0.00390625C27.2844 0.00753338 27.23 0.0151598 27.1757 0.0265994C17.3769 1.94083 9.77936 9.53675 7.83048 19.1537C7.41508 21.1975 7.15497 23.2796 7.04238 25.3692C8.07117 25.8153 12.8463 27.9126 14.9505 28.8278V29.0985C12.9744 28.9231 7.83824 28.4655 4.85668 28.2024C4.87221 27.863 4.89162 27.5237 4.9188 27.1805C5.22161 23.6304 6.04465 20.1222 7.12779 16.717V16.7208ZM20.4982 26.4979L31.4461 21.6361C31.4461 21.6361 31.485 21.6208 31.5005 21.6132L33.1077 19.127H34.4471L36.0544 21.6132C36.0544 21.6132 36.0932 21.6284 36.1087 21.6361L43.8965 25.0946C45.8221 25.9488 47.0605 27.8325 47.0605 29.9069V30.7573L36.6794 26.9136C34.8276 26.2272 32.77 26.3301 30.9997 27.1957L27.0049 29.1481L47.0644 36.5762V39.0014L46.5519 44.2751L35.5458 49.1636L34.1093 49.9835H33.4494L31.5005 47.3524L20.4943 42.4638V38.2045L30.8754 42.0482C32.7273 42.7346 34.7849 42.6316 36.5552 41.766L40.55 39.8136L20.4905 32.3855V29.9603V26.5017L20.4982 26.4979Z" fill="#ED1975"/>
<path d="M82.7049 28.3973C82.7049 29.4383 83.2329 29.9569 84.2927 29.9569H89.0562C90.7877 29.9569 92.0572 30.3496 92.8686 31.1352C93.68 31.9207 94.0876 33.1485 94.0876 34.8187V36.0961C94.0876 37.7663 93.68 38.9942 92.8686 39.7797C92.0572 40.5652 90.7877 40.9542 89.0562 40.9542H82.0139C80.7249 40.9542 79.4477 40.8436 78.1743 40.6148V37.2859H87.9964C88.4001 37.2859 88.7262 37.1753 88.9631 36.9541C89.1999 36.733 89.3202 36.4355 89.3202 36.058V33.8502H83.2329C81.381 33.8502 80.0339 33.4383 79.1953 32.6147C78.3568 31.791 77.9375 30.4717 77.9375 28.6489V27.8672C77.9375 26.0483 78.3568 24.7252 79.1953 23.9015C80.0339 23.0778 81.381 22.666 83.2329 22.666H92.5231V26.3076H84.2888C83.229 26.3076 82.701 26.8262 82.701 27.8672V28.3858L82.7049 28.3973Z" fill="#ED1C24"/>
<path d="M96.4727 22.6738H107.591C109.443 22.6738 110.79 23.0857 111.629 23.9093C112.467 24.733 112.887 26.0561 112.887 27.875V30.4757C112.887 32.2946 112.467 33.6177 111.629 34.4414C110.79 35.2651 109.447 35.6769 107.591 35.6769H101.236V40.8781H96.4727V22.6776V22.6738ZM108.119 27.875C108.119 26.834 107.591 26.3154 106.532 26.3154H101.236V32.0353H106.532C107.591 32.0353 108.119 31.5167 108.119 30.4757V27.875Z" fill="#ED1C24"/>
<path d="M124.004 40.8781H114.473V37.2365H116.856V26.3154H114.473V22.6738H124.004V26.3154H121.62V37.2365H124.004V40.8781Z" fill="#ED1C24"/>
<path d="M136.71 22.6738C138.705 22.6738 140.219 23.181 141.248 24.1953C142.281 25.2096 142.797 26.6968 142.797 28.6529V34.8952C142.797 36.8552 142.281 38.3423 141.248 39.3528C140.215 40.3671 138.701 40.8743 136.71 40.8743H126.387V22.6738H136.71ZM138.033 28.6568C138.033 27.0972 137.238 26.3154 135.65 26.3154H131.15V37.2365H135.65C137.238 37.2365 138.033 36.4586 138.033 34.8952V28.6529V28.6568Z" fill="#ED1C24"/>
<path d="M160.136 40.8782H145.445V22.6777H160.136V26.3193H150.209V29.8313H158.02V33.4729H150.209V37.2442H160.136V40.8858V40.8782Z" fill="#ED1C24"/>
<path d="M162.254 22.6738H173.373C175.224 22.6738 176.572 23.0857 177.41 23.9093C178.249 24.733 178.668 26.0561 178.668 27.875V30.2164C178.668 31.6539 178.427 32.775 177.938 33.572C177.453 34.3689 176.68 34.899 175.62 35.1583L178.928 40.8781H173.765L170.721 35.4176H167.014V40.8781H162.25V22.6776L162.254 22.6738ZM173.901 27.875C173.901 26.834 173.373 26.3154 172.313 26.3154H167.017V31.776H172.313C173.373 31.776 173.901 31.2574 173.901 30.2164V27.875Z" fill="#ED1C24"/>
<path d="M82.7049 28.3973C82.7049 29.4383 83.2329 29.9569 84.2927 29.9569H89.0562C90.7877 29.9569 92.0572 30.3496 92.8686 31.1352C93.68 31.9207 94.0876 33.1485 94.0876 34.8187V36.0961C94.0876 37.7663 93.68 38.9942 92.8686 39.7797C92.0572 40.5652 90.7877 40.9542 89.0562 40.9542H82.0139C80.7249 40.9542 79.4477 40.8436 78.1743 40.6148V37.2859H87.9964C88.4001 37.2859 88.7262 37.1753 88.9631 36.9541C89.1999 36.733 89.3202 36.4355 89.3202 36.058V33.8502H83.2329C81.381 33.8502 80.0339 33.4383 79.1953 32.6147C78.3568 31.791 77.9375 30.4717 77.9375 28.6489V27.8672C77.9375 26.0483 78.3568 24.7252 79.1953 23.9015C80.0339 23.0778 81.381 22.666 83.2329 22.666H92.5231V26.3076H84.2888C83.229 26.3076 82.701 26.8262 82.701 27.8672V28.3858L82.7049 28.3973Z" fill="#ED1975"/>
<path d="M96.4727 22.6738H107.591C109.443 22.6738 110.79 23.0857 111.629 23.9093C112.467 24.733 112.887 26.0561 112.887 27.875V30.4757C112.887 32.2946 112.467 33.6177 111.629 34.4414C110.79 35.2651 109.447 35.6769 107.591 35.6769H101.236V40.8781H96.4727V22.6776V22.6738ZM108.119 27.875C108.119 26.834 107.591 26.3154 106.532 26.3154H101.236V32.0353H106.532C107.591 32.0353 108.119 31.5167 108.119 30.4757V27.875Z" fill="#ED1975"/>
<path d="M124.004 40.8781H114.473V37.2365H116.856V26.3154H114.473V22.6738H124.004V26.3154H121.62V37.2365H124.004V40.8781Z" fill="#ED1975"/>
<path d="M136.71 22.6738C138.705 22.6738 140.219 23.181 141.248 24.1953C142.281 25.2096 142.797 26.6968 142.797 28.6529V34.8952C142.797 36.8552 142.281 38.3423 141.248 39.3528C140.215 40.3671 138.701 40.8743 136.71 40.8743H126.387V22.6738H136.71ZM138.033 28.6568C138.033 27.0972 137.238 26.3154 135.65 26.3154H131.15V37.2365H135.65C137.238 37.2365 138.033 36.4586 138.033 34.8952V28.6529V28.6568Z" fill="#ED1975"/>
<path d="M160.136 40.8782H145.445V22.6777H160.136V26.3193H150.209V29.8313H158.02V33.4729H150.209V37.2442H160.136V40.8858V40.8782Z" fill="#ED1975"/>
<path d="M162.254 22.6738H173.373C175.224 22.6738 176.572 23.0857 177.41 23.9093C178.249 24.733 178.668 26.0561 178.668 27.875V30.2164C178.668 31.6539 178.427 32.775 177.938 33.572C177.453 34.3689 176.68 34.899 175.62 35.1583L178.928 40.8781H173.765L170.721 35.4176H167.014V40.8781H162.25V22.6776L162.254 22.6738ZM173.901 27.875C173.901 26.834 173.373 26.3154 172.313 26.3154H167.017V31.776H172.313C173.373 31.776 173.901 31.2574 173.901 30.2164V27.875Z" fill="#ED1975"/>
<path d="M198.263 36.1951C198.263 37.8958 197.86 39.1427 197.044 39.9397C196.233 40.7366 194.963 41.137 193.232 41.137H187.145C185.413 41.137 184.144 40.7404 183.332 39.9397C182.521 39.1427 182.113 37.8958 182.113 36.1951V35.9358C182.113 35.2265 182.206 34.5974 182.389 34.0521C182.575 33.5068 182.812 33.0416 183.103 32.6603C183.394 32.2789 183.728 31.9777 184.109 31.7489C184.489 31.5239 184.881 31.36 185.285 31.257C184.493 30.9977 183.853 30.5401 183.367 29.8919C182.882 29.2398 182.637 28.3971 182.637 27.3561V27.0968C182.637 25.5181 183.041 24.3436 183.856 23.5734C184.668 22.8031 185.937 22.418 187.669 22.418H192.7C194.428 22.418 195.701 22.8031 196.513 23.5734C197.324 24.3436 197.732 25.5181 197.732 27.0968V27.3561C197.732 28.3971 197.491 29.2398 197.002 29.8919C196.516 30.5401 195.876 30.9977 195.084 31.257C195.472 31.36 195.86 31.5277 196.249 31.7489C196.637 31.9739 196.978 32.2789 197.266 32.6603C197.557 33.0416 197.794 33.5068 197.98 34.0521C198.166 34.5974 198.256 35.2265 198.256 35.9358V36.1951H198.263ZM188.469 33.5945C187.409 33.5945 186.881 34.1131 186.881 35.1541V36.1951C186.881 36.5955 187.001 36.912 187.238 37.1446C187.475 37.3772 187.797 37.4954 188.205 37.4954H192.176C192.58 37.4954 192.906 37.3772 193.143 37.1446C193.38 36.912 193.5 36.5955 193.5 36.1951V35.1541C193.5 34.1131 192.972 33.5945 191.912 33.5945H188.472H188.469ZM188.996 26.0558C187.937 26.0558 187.409 26.5744 187.409 27.6154V28.3971C187.409 29.4381 187.937 29.9567 188.996 29.9567H191.38C192.44 29.9567 192.968 29.4381 192.968 28.3971V27.6154C192.968 26.5744 192.44 26.0558 191.38 26.0558H188.996Z" fill="#2E3192"/>
<path d="M216.002 36.1951C216.002 37.8958 215.594 39.1427 214.783 39.9397C213.971 40.7366 212.698 41.137 210.97 41.137H204.883C203.151 41.137 201.882 40.7404 201.071 39.9397C200.259 39.1427 199.852 37.8958 199.852 36.1951V35.9358C199.852 35.2265 199.945 34.5974 200.131 34.0521C200.317 33.5068 200.554 33.0416 200.845 32.6603C201.137 32.2789 201.47 31.9777 201.851 31.7489C202.231 31.5239 202.623 31.36 203.031 31.257C202.235 30.9977 201.595 30.5401 201.113 29.8919C200.628 29.2398 200.383 28.3971 200.383 27.3561V27.0968C200.383 25.5181 200.787 24.3436 201.602 23.5734C202.414 22.8031 203.683 22.418 205.415 22.418H210.446C212.178 22.418 213.447 22.8031 214.259 23.5734C215.07 24.3436 215.478 25.5181 215.478 27.0968V27.3561C215.478 28.3971 215.237 29.2398 214.748 29.8919C214.262 30.5401 213.622 30.9977 212.83 31.257C213.218 31.36 213.606 31.5277 213.995 31.7489C214.383 31.9739 214.724 32.2789 215.016 32.6603C215.307 33.0416 215.544 33.5068 215.73 34.0521C215.916 34.5974 216.009 35.2265 216.009 35.9358V36.1951H216.002ZM206.207 33.5945C205.147 33.5945 204.619 34.1131 204.619 35.1541V36.1951C204.619 36.5955 204.739 36.912 204.976 37.1446C205.213 37.3772 205.535 37.4954 205.943 37.4954H209.914C210.318 37.4954 210.644 37.3772 210.881 37.1446C211.118 36.912 211.238 36.5955 211.238 36.1951V35.1541C211.238 34.1131 210.71 33.5945 209.65 33.5945H206.207ZM206.735 26.0558C205.675 26.0558 205.147 26.5744 205.147 27.6154V28.3971C205.147 29.4381 205.675 29.9567 206.735 29.9567H209.118C210.178 29.9567 210.706 29.4381 210.706 28.3971V27.6154C210.706 26.5744 210.178 26.0558 209.118 26.0558H206.735Z" fill="#2E3192"/>
<path d="M198.263 36.1951C198.263 37.8958 197.86 39.1427 197.044 39.9397C196.233 40.7366 194.963 41.137 193.232 41.137H187.145C185.413 41.137 184.144 40.7404 183.332 39.9397C182.521 39.1427 182.113 37.8958 182.113 36.1951V35.9358C182.113 35.2265 182.206 34.5974 182.389 34.0521C182.575 33.5068 182.812 33.0416 183.103 32.6603C183.394 32.2789 183.728 31.9777 184.109 31.7489C184.489 31.5239 184.881 31.36 185.285 31.257C184.493 30.9977 183.853 30.5401 183.367 29.8919C182.882 29.2398 182.637 28.3971 182.637 27.3561V27.0968C182.637 25.5181 183.041 24.3436 183.856 23.5734C184.668 22.8031 185.937 22.418 187.669 22.418H192.7C194.428 22.418 195.701 22.8031 196.513 23.5734C197.324 24.3436 197.732 25.5181 197.732 27.0968V27.3561C197.732 28.3971 197.491 29.2398 197.002 29.8919C196.516 30.5401 195.876 30.9977 195.084 31.257C195.472 31.36 195.86 31.5277 196.249 31.7489C196.637 31.9739 196.978 32.2789 197.266 32.6603C197.557 33.0416 197.794 33.5068 197.98 34.0521C198.166 34.5974 198.256 35.2265 198.256 35.9358V36.1951H198.263ZM188.469 33.5945C187.409 33.5945 186.881 34.1131 186.881 35.1541V36.1951C186.881 36.5955 187.001 36.912 187.238 37.1446C187.475 37.3772 187.797 37.4954 188.205 37.4954H192.176C192.58 37.4954 192.906 37.3772 193.143 37.1446C193.38 36.912 193.5 36.5955 193.5 36.1951V35.1541C193.5 34.1131 192.972 33.5945 191.912 33.5945H188.472H188.469ZM188.996 26.0558C187.937 26.0558 187.409 26.5744 187.409 27.6154V28.3971C187.409 29.4381 187.937 29.9567 188.996 29.9567H191.38C192.44 29.9567 192.968 29.4381 192.968 28.3971V27.6154C192.968 26.5744 192.44 26.0558 191.38 26.0558H188.996Z" fill="#3F74BA"/>
<path d="M216.002 36.1951C216.002 37.8958 215.594 39.1427 214.783 39.9397C213.971 40.7366 212.698 41.137 210.97 41.137H204.883C203.151 41.137 201.882 40.7404 201.071 39.9397C200.259 39.1427 199.852 37.8958 199.852 36.1951V35.9358C199.852 35.2265 199.945 34.5974 200.131 34.0521C200.317 33.5068 200.554 33.0416 200.845 32.6603C201.137 32.2789 201.47 31.9777 201.851 31.7489C202.231 31.5239 202.623 31.36 203.031 31.257C202.235 30.9977 201.595 30.5401 201.113 29.8919C200.628 29.2398 200.383 28.3971 200.383 27.3561V27.0968C200.383 25.5181 200.787 24.3436 201.602 23.5734C202.414 22.8031 203.683 22.418 205.415 22.418H210.446C212.178 22.418 213.447 22.8031 214.259 23.5734C215.07 24.3436 215.478 25.5181 215.478 27.0968V27.3561C215.478 28.3971 215.237 29.2398 214.748 29.8919C214.262 30.5401 213.622 30.9977 212.83 31.257C213.218 31.36 213.606 31.5277 213.995 31.7489C214.383 31.9739 214.724 32.2789 215.016 32.6603C215.307 33.0416 215.544 33.5068 215.73 34.0521C215.916 34.5974 216.009 35.2265 216.009 35.9358V36.1951H216.002ZM206.207 33.5945C205.147 33.5945 204.619 34.1131 204.619 35.1541V36.1951C204.619 36.5955 204.739 36.912 204.976 37.1446C205.213 37.3772 205.535 37.4954 205.943 37.4954H209.914C210.318 37.4954 210.644 37.3772 210.881 37.1446C211.118 36.912 211.238 36.5955 211.238 36.1951V35.1541C211.238 34.1131 210.71 33.5945 209.65 33.5945H206.207ZM206.735 26.0558C205.675 26.0558 205.147 26.5744 205.147 27.6154V28.3971C205.147 29.4381 205.675 29.9567 206.735 29.9567H209.118C210.178 29.9567 210.706 29.4381 210.706 28.3971V27.6154C210.706 26.5744 210.178 26.0558 209.118 26.0558H206.735Z" fill="#3F74BA"/>
</g>
<defs>
<clipPath id="clip0_3050_36155">
<rect width="216" height="65" fill="white"/>
</clipPath>
</defs>
</svg>
