<svg width="21" height="14" viewBox="0 0 21 14" fill="none" xmlns="http://www.w3.org/2000/svg">
<path d="M16.73 3.14C16.6275 3.02369 16.5231 2.91037 16.4168 2.80008L15.4823 3.55681C15.6007 3.67694 15.7167 3.80136 15.83 3.93L18.51 6.98L15.83 10.03C14.28 11.79 12.23 12.76 10.05 12.76C8.52655 12.76 7.06658 12.2863 5.79638 11.4003L4.83741 12.1768C6.36951 13.335 8.17012 13.96 10.06 13.96C12.59 13.96 14.96 12.85 16.74 10.82L20.12 6.98L16.74 3.14H16.73Z" fill="#E3E4E5" fill-opacity="0.4"/>
<path fill-rule="evenodd" clip-rule="evenodd" d="M14.9202 1.5294C13.4674 0.533937 11.7969 0 10.05 0C7.52 0 5.15 1.11 3.38 3.14L0 6.98L3.38 10.82C3.38934 10.8306 3.3987 10.8412 3.40807 10.8517L2.64746 11.4677C2.29343 11.7543 2.18259 12.2173 2.40915 12.497C2.6357 12.7768 3.10143 12.7728 3.46558 12.4779L16.9796 1.53452C17.3336 1.24783 17.4445 0.784917 17.2179 0.505145C16.9913 0.225372 16.5256 0.229353 16.1615 0.524236L14.9202 1.5294ZM13.9418 2.32166L12.2997 3.6514C11.673 3.1234 10.8933 2.81 10.05 2.81C7.99 2.81 6.31 4.68 6.31 6.98C6.31 7.45491 6.38163 7.91149 6.51344 8.33705L4.33401 10.1019C4.31258 10.0781 4.29124 10.0541 4.27 10.03L1.59 6.98L4.27 3.93C5.82 2.17 7.87 1.2 10.05 1.2C11.4308 1.2 12.7594 1.58913 13.9418 2.32166Z" fill="#E3E4E5" fill-opacity="0.4"/>
<path d="M10.05 11.15C9.0644 11.15 8.16579 10.7219 7.49654 10.0235L13.4371 5.21293C13.6634 5.7497 13.79 6.34865 13.79 6.98C13.79 9.28 12.11 11.15 10.05 11.15Z" fill="#E3E4E5" fill-opacity="0.4"/>
</svg>
