<svg width="22" height="14" viewBox="0 0 22 14" fill="none" xmlns="http://www.w3.org/2000/svg">
<path d="M10.9998 11.1665C12.1457 11.1665 13.1196 10.7655 13.9217 9.96338C14.7238 9.1613 15.1248 8.18734 15.1248 7.0415C15.1248 5.89567 14.7238 4.92171 13.9217 4.11963C13.1196 3.31755 12.1457 2.9165 10.9998 2.9165C9.854 2.9165 8.88005 3.31755 8.07796 4.11963C7.27588 4.92171 6.87484 5.89567 6.87484 7.0415C6.87484 8.18734 7.27588 9.1613 8.07796 9.96338C8.88005 10.7655 9.854 11.1665 10.9998 11.1665ZM10.9998 9.5165C10.3123 9.5165 9.72796 9.27588 9.24671 8.79463C8.76546 8.31338 8.52484 7.729 8.52484 7.0415C8.52484 6.354 8.76546 5.76963 9.24671 5.28838C9.72796 4.80713 10.3123 4.5665 10.9998 4.5665C11.6873 4.5665 12.2717 4.80713 12.753 5.28838C13.2342 5.76963 13.4748 6.354 13.4748 7.0415C13.4748 7.729 13.2342 8.31338 12.753 8.79463C12.2717 9.27588 11.6873 9.5165 10.9998 9.5165ZM10.9998 13.9165C8.76928 13.9165 6.73734 13.2939 4.904 12.0488C3.07067 10.8037 1.7415 9.13456 0.916504 7.0415C1.7415 4.94845 3.07067 3.27935 4.904 2.03421C6.73734 0.789073 8.76928 0.166504 10.9998 0.166504C13.2304 0.166504 15.2623 0.789073 17.0957 2.03421C18.929 3.27935 20.2582 4.94845 21.0832 7.0415C20.2582 9.13456 18.929 10.8037 17.0957 12.0488C15.2623 13.2939 13.2304 13.9165 10.9998 13.9165ZM10.9998 12.0832C12.7262 12.0832 14.3113 11.6287 15.755 10.7196C17.1988 9.8106 18.3026 8.58456 19.0665 7.0415C18.3026 5.49845 17.1988 4.27241 15.755 3.36338C14.3113 2.45435 12.7262 1.99984 10.9998 1.99984C9.27345 1.99984 7.68838 2.45435 6.24463 3.36338C4.80088 4.27241 3.69706 5.49845 2.93317 7.0415C3.69706 8.58456 4.80088 9.8106 6.24463 10.7196C7.68838 11.6287 9.27345 12.0832 10.9998 12.0832Z" fill="#E3E4E5" fill-opacity="0.4"/>
</svg>
