<svg width="24" height="25" viewBox="0 0 24 25" fill="none" xmlns="http://www.w3.org/2000/svg">
<g id="viewport">
<g id="Unlock">
<path d="M13.6124 14.6403C13.6364 15.1602 13.4352 15.6315 13.1022 15.9571L14.1571 19.1807C14.3097 19.6469 13.9784 20.1318 13.5072 20.1318H10.492C10.0208 20.1318 9.68956 19.6469 9.8421 19.1807L10.8973 15.9571C10.5822 15.6487 10.3851 15.2105 10.3851 14.7238C10.3851 13.7679 11.1441 12.9977 12.0662 13.0365C12.8961 13.0715 13.5724 13.773 13.6124 14.6403Z" fill="#E3E4E5" fill-opacity="0.2"/>
<path fill-rule="evenodd" clip-rule="evenodd" d="M18.3411 7.15926V9.53154C19.8418 9.75244 21 11.1037 21 12.7329V21.2945C21 23.0774 19.6131 24.5278 17.9082 24.5278H6.09179C4.38693 24.5278 3 23.0774 3 21.2945V12.7329C3 11.1037 4.15824 9.75244 5.65866 9.53154V7.15926C5.65866 5.38804 6.31854 3.72283 7.51607 2.47024C8.71359 1.21765 10.3059 0.527832 11.9999 0.527832C13.6938 0.527832 15.2862 1.21765 16.4837 2.47024C17.6815 3.72257 18.3411 5.38804 18.3411 7.15926ZM16.6437 7.15926C16.6437 4.48163 14.5606 2.30311 12.0001 2.30311C9.43968 2.30311 7.35649 4.48163 7.35649 7.15926V9.49959H16.6437V7.15926ZM17.9082 23.2598C18.9445 23.2598 19.7874 22.3782 19.7874 21.2945V12.7329C19.7874 11.6492 18.9445 10.7676 17.9082 10.7676H6.09179C5.05554 10.7676 4.21256 11.6492 4.21256 12.7329V21.2945C4.21256 22.3782 5.05554 23.2598 6.09179 23.2598H17.9082Z" fill="#E3E4E5" fill-opacity="0.2"/>
</g>
</g>
</svg>
