<svg width="43" height="41" viewBox="0 0 43 41" fill="none" xmlns="http://www.w3.org/2000/svg">
<path d="M4.48787 10.5495C5.03052 8.87299 5.67094 7.21336 6.39692 5.58982C2.44926 9.39012 0 14.6865 0 20.5481C0 20.702 0.00244437 20.856 0.00488875 21.0075C1.30285 21.1494 4.48787 21.5078 6.94691 21.782L1.41774 23.5667L1.21974 24.5769C1.21974 24.5769 1.2173 24.5913 1.21485 24.5986C0.948416 25.972 1.11463 27.3959 1.66706 28.6827C2.79881 31.3212 4.46587 33.6832 6.53381 35.6387C5.25296 33.0723 4.15788 29.7338 4.55631 26.2341L9.41328 24.6659V25.2263C7.58733 27.4079 5.87383 30.667 6.01316 33.2863L6.03271 33.6327L6.18426 33.9454C6.1916 33.9598 6.20382 33.9863 6.22093 34.0223C7.16446 35.9225 8.6433 37.5244 10.4961 38.5971C12.4101 39.706 14.5147 40.5262 16.7488 41.0024C12.8672 38.5947 10.2493 34.0584 9.56972 32.786C9.62838 32.038 9.98771 30.8618 10.699 29.5726L21.2685 34.2749L31.838 29.5726C32.5493 30.8618 32.9061 32.038 32.9673 32.786C32.2853 34.0608 29.6698 38.5947 25.7881 41.0024C28.0247 40.5262 30.1293 39.7036 32.0408 38.5971C33.8937 37.5244 35.3725 35.9225 36.316 34.0223C36.3332 33.9863 36.3478 33.9598 36.3527 33.9454L36.5043 33.6327L36.5238 33.2863C36.6631 30.667 34.9496 27.4079 33.1237 25.2263V24.6659L37.9807 26.2341C38.3791 29.7314 37.284 33.0723 36.0032 35.6387C38.0711 33.6832 39.7382 31.3212 40.8699 28.6827C41.4223 27.3935 41.5886 25.972 41.3221 24.5986C41.3221 24.5913 41.3197 24.5841 41.3172 24.5769L41.1192 23.5667L35.5852 21.7796C38.0442 21.5054 41.239 21.1446 42.5321 21.0051C42.5345 20.8536 42.537 20.6996 42.537 20.5457C42.537 14.6841 40.0853 9.38531 36.14 5.585C36.2378 5.80388 36.3356 6.02036 36.4285 6.23923C37.9171 9.72445 39.1051 13.3732 39.44 17.1447C39.4571 17.3587 39.4668 17.5752 39.4766 17.7893C37.6287 17.9528 34.6539 18.2174 33.1212 18.3545V18.1837C34.4437 17.6065 37.4747 16.274 38.1004 16.0022L37.9904 14.7442C37.9171 13.8904 37.7973 13.0389 37.6336 12.1922C36.448 6.07808 31.64 1.2339 25.4337 0.0216473C25.3995 0.0144315 25.3653 0.00721577 25.331 0.00240526C27.5676 1.29884 29.5036 3.11 30.9775 5.20257C32.7937 7.7786 33.8546 10.7924 34.3092 13.9C33.6052 14.2463 33.2924 14.4003 32.5346 14.7731C32.1899 14.2776 31.7133 13.8711 31.134 13.6137L23.4684 10.2031C22.0727 9.58254 20.4716 9.58254 19.0734 10.2031L11.4079 13.6137C10.8286 13.8711 10.3495 14.2776 10.0073 14.7731C9.24706 14.3979 8.92929 14.2415 8.22531 13.8952C8.91952 9.0606 11.2294 4.4377 15.1649 1.39505C15.8151 0.889945 16.4995 0.418515 17.2133 0C17.179 0.00721577 17.1448 0.0120263 17.1106 0.019242C10.941 1.22668 6.15737 6.01795 4.9303 12.084C4.66875 13.3732 4.50498 14.6865 4.43409 16.0046C5.08185 16.286 8.08843 17.6089 9.41328 18.1861V18.3569C8.16909 18.2463 4.93519 17.9576 3.05791 17.7917C3.06769 17.5776 3.07991 17.3635 3.09702 17.1471C3.28768 14.9078 3.80589 12.6949 4.48787 10.547V10.5495ZM12.9063 16.7165L19.7994 13.6498C19.7994 13.6498 19.8239 13.6402 19.8336 13.6354L20.8456 12.0672H21.6889L22.7009 13.6354C22.7009 13.6354 22.7253 13.645 22.7351 13.6498L27.6385 15.8314C28.8509 16.3702 29.6307 17.5584 29.6307 18.8668V19.4032L23.0944 16.9787C21.9285 16.5458 20.6329 16.6107 19.5183 17.1567L17.0031 18.3882L29.6331 23.0736V24.6034L29.3105 27.9298L22.3807 31.0134L21.4763 31.5305H21.0607L19.8336 29.8709L12.9038 26.7873V24.1007L19.4401 26.5252C20.6061 26.9581 21.9016 26.8932 23.0162 26.3472L25.5315 25.1157L12.9014 20.4302V18.9005V16.7189L12.9063 16.7165Z" fill="#ED1975"/>
</svg>
