<?xml version="1.0" encoding="UTF-8"?>
<svg id="Layer_2" data-name="Layer 2" xmlns="http://www.w3.org/2000/svg" viewBox="0 0 1751.32 435.13">
  <defs>
    <style>
      .cls-1 {
        fill: #fff;
      }
    </style>
  </defs>
  <g id="Layer_2-2" data-name="Layer 2">
    <g>
      <g>
        <path class="cls-1" d="M405.3,171.96l-61.64,22.19-109.89-51.36c-10.31-2.16-21.92,3.17-31.23,7.2-6.83,2.95-31.49,13.51-18.29,21.96,33.44,15.77,68.18,29.44,101.29,45.84,27.33,13.53,54.19,25.51,50.91,61.41-3.51,38.31-31.26,49.93-62.93,63.86-14.04,6.17-29.62,14.42-45.27,11.84-33.6-10.02-64.32-27.89-96.69-41.21-7.91-1.89-6.47,10.85-6.05,15.6,3.28,36.52,32.53,79.06,56.15,105.83-39.71-15.01-78.65-51.29-94.68-90.8-11.11-27.39-13.71-44.1,10.13-64.95,6.19-5.41,25.57-18.3,33.21-17.67,4.42.37,10.89,3.56,15.28,5.22,24.37,9.2,48.43,23.69,72.56,33.88,4.17,1.76,12.01,5.8,15.95,6.08,8.29.6,41.79-15.03,47.77-21.18,8.81-9.05,4.12-13.43-4.92-18.66-37.35-21.61-86.15-35.86-124.54-57.03-22.52-12.42-29.8-37.01-21.59-61.28,7.27-21.48,50.56-41.79,71.2-49.33,31.87-11.64,45.83-2.52,74.6,9.87,26.16,11.26,51.58,24.67,77.17,37.15,8.7,3.22,6.63-9.81,5.89-15.35-4.8-36.18-40.53-88.34-66.88-113.12L270.9,0c75.51,19.58,138.76,91.62,134.4,171.96Z"/>
        <path class="cls-1" d="M452.27,218.92l-56.14,17.44c12.41,10.32,24.08,24.23,27.74,40.33,7.75,34.12-18.03,74.87-38.68,100.53,8.37-24.19,15.07-48.29,12.5-74.33-3.38-34.12-41.04-52.09-64.13-72.02,27.63-18.37,60.01-27.58,90.35-40.33,5.68-31.32-.7-65.12-10.53-95.07,27.14,34.18,38.79,80.22,38.91,123.45h0Z"/>
        <path class="cls-1" d="M28.48,190.74c32.42,11.69,65.57,22.78,93.7,43.26-22.73,8.57-44.54,23.31-57.63,44.1-18.93,30.03-8.26,68.71,4.4,99.12-28.15-31.26-58.6-85.38-28.12-124.4,1.41-1.8,16.43-15.66,15.61-16.46L0,218.17c.55-43.49,12.54-86.43,37.65-121.94l-7.4,33.31c-3.12,20.62-4.86,40.42-1.78,61.2h0Z"/>
        <path class="cls-1" d="M180.11,0c-37.39,28.19-71.3,71.63-83.74,117.39-5.31,19.53-9.04,30.79,16.44,32.88-4.21,18.07-.88,34.9,6.24,51.65l-71.73-30C44.67,90.97,104.56,21.77,180.11,0Z"/>
        <path class="cls-1" d="M270.9,435.12c-.11-2.37,2.97-1.95,4.72-3.85,27.13-29.58,35.11-58.18,52.03-91.98,5.26-10.52,14.06-20.02,19.23-30.86,3.65-7.66,5.46-16.01,9.32-23.52,18.01,11.11,18.58,26.38,14.08,45.35-11.03,46.52-54.9,89.64-99.38,104.88h0Z"/>
      </g>
      <g>
        <path class="cls-1" d="M503.85,274.78l26.8-32.02c17.11,13.64,36.23,20.84,56.33,20.84,12.9,0,19.85-4.46,19.85-11.91v-.51c0-7.2-5.7-11.18-29.28-16.63-36.98-8.44-65.5-18.86-65.5-54.6v-.51c0-32.27,25.55-55.59,67.25-55.59,29.53,0,52.6,7.94,71.46,23.07l-24.08,33.99c-15.89-11.18-33.26-17.14-48.65-17.14-11.66,0-17.37,4.97-17.37,11.18v.51c0,7.94,5.96,11.41,30.04,16.88,39.95,8.69,64.77,21.6,64.77,54.1v.51c0,35.49-28.04,56.58-70.22,56.58-30.77,0-60.05-9.68-81.4-28.8v.05Z"/>
        <path class="cls-1" d="M678.79,126.89h74.45c43.93,0,72.22,22.59,72.22,61.04v.51c0,40.94-31.51,62.54-74.7,62.54h-23.83v49.63h-48.14s0-173.72,0-173.72ZM749.77,213.26c17.11,0,27.55-8.92,27.55-22.59v-.51c0-14.88-10.42-22.84-27.78-22.84h-22.59v45.91h22.84l-.02.02Z"/>
        <path class="cls-1" d="M846.81,126.89h48.39v173.72h-48.39V126.89h0Z"/>
        <path class="cls-1" d="M926.96,126.89h67c62.03,0,98.03,35.74,98.03,85.86v.51c0,50.12-36.48,87.36-99.02,87.36h-66.01V126.89ZM994.7,257.92c28.8,0,47.89-15.89,47.89-43.93v-.51c0-27.78-19.11-43.93-47.89-43.93h-19.6v88.34h19.6v.02Z"/>
        <path class="cls-1" d="M1116.78,126.89h139.73v40.94h-92.07v26.31h83.38v37.97h-83.38v27.55h93.31v40.94h-140.95V126.89h-.02Z"/>
        <path class="cls-1" d="M1282.32,126.89h82.13c26.54,0,44.92,6.95,56.58,18.86,10.17,9.94,15.39,23.32,15.39,40.46v.51c0,26.54-14.15,44.18-35.74,53.36l41.45,60.56h-55.59l-34.98-52.6h-21.09v52.6h-48.14V126.89ZM1362.22,210.27c16.38,0,25.81-7.94,25.81-20.61v-.51c0-13.64-9.94-20.61-26.06-20.61h-31.51v41.7h31.76v.02Z"/>
        <path class="cls-1" d="M1452.06,252.7v-.51c0-21.09,11.18-33.74,29.79-41.7-13.41-7.45-23.83-18.86-23.83-37.72v-.51c0-27.78,26.54-48.39,65.5-48.39s65.5,20.61,65.5,48.39v.51c0,18.86-10.42,30.27-23.83,37.72,17.62,8.19,29.79,19.85,29.79,41.45v.51c0,31.03-29.79,51.13-71.46,51.13s-71.46-20.61-71.46-50.88h0ZM1548.59,247.99v-.51c0-11.16-10.42-18.86-25.07-18.86s-25.07,7.68-25.07,18.86v.51c0,10.42,8.92,19.6,25.07,19.6s25.07-9.18,25.07-19.6ZM1544.87,178.5v-.51c0-9.68-8.19-18.35-21.34-18.35s-21.34,8.44-21.34,18.12v.51c0,10.93,8.44,19.11,21.34,19.11s21.34-7.94,21.34-18.86v-.02Z"/>
        <path class="cls-1" d="M1608.39,252.7v-.51c0-21.09,11.18-33.74,29.79-41.7-13.41-7.45-23.83-18.86-23.83-37.72v-.51c0-27.78,26.54-48.39,65.5-48.39s65.5,20.61,65.5,48.39v.51c0,18.86-10.42,30.27-23.83,37.72,17.62,8.19,29.79,19.85,29.79,41.45v.51c0,31.03-29.79,51.13-71.46,51.13s-71.46-20.61-71.46-50.88h0ZM1704.93,247.99v-.51c0-11.16-10.42-18.86-25.07-18.86s-25.07,7.68-25.07,18.86v.51c0,10.42,8.92,19.6,25.07,19.6s25.07-9.18,25.07-19.6ZM1701.2,178.5v-.51c0-9.68-8.19-18.35-21.34-18.35s-21.34,8.44-21.34,18.12v.51c0,10.93,8.44,19.11,21.34,19.11s21.34-7.94,21.34-18.86v-.02Z"/>
      </g>
    </g>
  </g>
</svg>