<?xml version="1.0" encoding="UTF-8"?>
<svg id="Layer_2" data-name="Layer 2" xmlns="http://www.w3.org/2000/svg" viewBox="0 0 542.37 604.21">
  <defs>
    <style>
      .cls-1 {
        fill: #fff;
      }
    </style>
  </defs>
  <g id="Layer_2-2" data-name="Layer 2">
    <g id="Layer_1-2" data-name="Layer 1-2">
      <g>
        <path class="cls-1" d="M473.56,195.41l-70.05,25.22-124.88-58.37c-11.72-2.45-24.91,3.6-35.49,8.18-7.76,3.35-35.78,15.35-20.78,24.96,38,17.92,77.48,33.45,115.11,52.09,31.06,15.38,61.58,28.99,57.85,69.79-3.99,43.54-35.52,56.74-71.51,72.57-15.95,7.01-33.66,16.39-51.44,13.45-38.18-11.39-73.09-31.69-109.88-46.83-8.99-2.15-7.35,12.33-6.87,17.73,3.73,41.5,36.97,89.84,63.81,120.26-45.13-17.06-89.38-58.29-107.59-103.18-12.62-31.13-15.58-50.11,11.51-73.81,7.03-6.15,29.06-20.8,37.74-20.08,5.02.42,12.37,4.05,17.36,5.93,27.69,10.46,55.04,26.92,82.46,38.5,4.74,2,13.65,6.59,18.13,6.91,9.42.68,47.49-17.08,54.29-24.07,10.01-10.29,4.68-15.26-5.59-21.21-42.44-24.56-97.9-40.75-141.53-64.81-25.59-14.11-33.86-42.06-24.53-69.64,8.26-24.41,57.46-47.49,80.91-56.06,36.22-13.23,52.08-2.86,84.78,11.22,29.73,12.8,58.62,28.04,87.7,42.22,9.89,3.66,7.53-11.15,6.69-17.44-5.45-41.12-46.06-100.39-76-128.55L320.83,0c85.81,22.25,157.68,104.12,152.73,195.41Z"/>
        <path class="cls-1" d="M526.93,248.78l-63.8,19.82c14.1,11.73,27.36,27.53,31.52,45.83,8.81,38.77-20.49,85.08-43.96,114.24,9.51-27.49,17.13-54.88,14.2-84.47-3.84-38.77-46.64-59.19-72.88-81.84,31.4-20.87,68.2-31.34,102.67-45.83,6.46-35.59-.8-74-11.97-108.04,30.84,38.84,44.08,91.16,44.22,140.29h0Z"/>
        <path class="cls-1" d="M45.35,216.76c36.84,13.28,74.51,25.89,106.48,49.16-25.83,9.74-50.61,26.49-65.49,50.11-21.51,34.13-9.39,78.08,5,112.64-31.99-35.52-66.59-97.03-31.96-141.37,1.6-2.04,18.67-17.8,17.74-18.7l-64.14-20.67c.63-49.42,14.25-98.22,42.79-138.57l-8.41,37.85c-3.55,23.43-5.52,45.93-2.02,69.55h0Z"/>
        <path class="cls-1" d="M217.65,0c-42.49,32.03-81.03,81.4-95.16,133.4-6.03,22.19-10.27,34.99,18.68,37.36-4.78,20.53-1,39.66,7.09,58.69l-81.51-34.09C63.74,103.38,131.8,24.74,217.65,0Z"/>
        <path class="cls-1" d="M320.83,494.47c-.12-2.69,3.38-2.22,5.36-4.38,30.83-33.61,39.9-66.11,59.13-104.53,5.98-11.95,15.98-22.75,21.85-35.07,4.15-8.71,6.21-18.19,10.59-26.73,20.47,12.63,21.11,29.98,16,51.54-12.54,52.86-62.39,101.87-112.93,119.18h0Z"/>
      </g>
      <g>
        <path class="cls-1" d="M0,591.69l11.65-13.92c7.44,5.93,15.75,9.06,24.49,9.06,5.61,0,8.63-1.94,8.63-5.18v-.22c0-3.13-2.48-4.86-12.73-7.23-16.08-3.67-28.48-8.2-28.48-23.74v-.22c0-14.03,11.11-24.17,29.24-24.17,12.84,0,22.87,3.45,31.07,10.03l-10.47,14.78c-6.91-4.86-14.46-7.45-21.15-7.45-5.07,0-7.55,2.16-7.55,4.86v.22c0,3.45,2.59,4.96,13.06,7.34,17.37,3.78,28.16,9.39,28.16,23.52v.22c0,15.43-12.19,24.6-30.53,24.6-13.38,0-26.11-4.21-35.39-12.52v.02Z"/>
        <path class="cls-1" d="M76.06,527.39h32.37c19.1,0,31.4,9.82,31.4,26.54v.22c0,17.8-13.7,27.19-32.48,27.19h-10.36v21.58h-20.93s0-75.53,0-75.53ZM106.92,564.94c7.44,0,11.98-3.88,11.98-9.82v-.22c0-6.47-4.53-9.93-12.08-9.93h-9.82v19.96h9.93,0Z"/>
        <path class="cls-1" d="M149.11,527.39h21.04v75.53h-21.04v-75.53h0Z"/>
        <path class="cls-1" d="M183.96,527.39h29.13c26.97,0,42.62,15.54,42.62,37.33v.22c0,21.79-15.86,37.98-43.05,37.98h-28.7v-75.53ZM213.41,584.36c12.52,0,20.82-6.91,20.82-19.1v-.22c0-12.08-8.31-19.1-20.82-19.1h-8.52v38.41h8.52Z"/>
        <path class="cls-1" d="M266.49,527.39h60.75v17.8h-40.03v11.44h36.25v16.51h-36.25v11.98h40.57v17.8h-61.28v-75.53h-.01Z"/>
        <path class="cls-1" d="M338.46,527.39h35.71c11.54,0,19.53,3.02,24.6,8.2,4.42,4.32,6.69,10.14,6.69,17.59v.22c0,11.54-6.15,19.21-15.54,23.2l18.02,26.33h-24.17l-15.21-22.87h-9.17v22.87h-20.93v-75.53h0ZM373.2,563.64c7.12,0,11.22-3.45,11.22-8.96v-.22c0-5.93-4.32-8.96-11.33-8.96h-13.7v18.13h13.81Z"/>
        <path class="cls-1" d="M412.26,582.09v-.22c0-9.17,4.86-14.67,12.95-18.13-5.83-3.24-10.36-8.2-10.36-16.4v-.22c0-12.08,11.54-21.04,28.48-21.04s28.48,8.96,28.48,21.04v.22c0,8.2-4.53,13.16-10.36,16.4,7.66,3.56,12.95,8.63,12.95,18.02v.22c0,13.49-12.95,22.23-31.07,22.23s-31.07-8.96-31.07-22.12h0ZM454.23,580.04v-.22c0-4.85-4.53-8.2-10.9-8.2s-10.9,3.34-10.9,8.2v.22c0,4.53,3.88,8.52,10.9,8.52s10.9-3.99,10.9-8.52ZM452.61,549.83v-.22c0-4.21-3.56-7.98-9.28-7.98s-9.28,3.67-9.28,7.88v.22c0,4.75,3.67,8.31,9.28,8.31s9.28-3.45,9.28-8.2h0Z"/>
        <path class="cls-1" d="M480.23,582.09v-.22c0-9.17,4.86-14.67,12.95-18.13-5.83-3.24-10.36-8.2-10.36-16.4v-.22c0-12.08,11.54-21.04,28.48-21.04s28.48,8.96,28.48,21.04v.22c0,8.2-4.53,13.16-10.36,16.4,7.66,3.56,12.95,8.63,12.95,18.02v.22c0,13.49-12.95,22.23-31.07,22.23s-31.07-8.96-31.07-22.12h0ZM522.2,580.04v-.22c0-4.85-4.53-8.2-10.9-8.2s-10.9,3.34-10.9,8.2v.22c0,4.53,3.88,8.52,10.9,8.52s10.9-3.99,10.9-8.52ZM520.58,549.83v-.22c0-4.21-3.56-7.98-9.28-7.98s-9.28,3.67-9.28,7.88v.22c0,4.75,3.67,8.31,9.28,8.31s9.28-3.45,9.28-8.2h0Z"/>
      </g>
    </g>
  </g>
</svg>